<svg xmlns="http://www.w3.org/2000/svg" xmlns:xlink="http://www.w3.org/1999/xlink" width="1920" zoomAndPan="magnify" viewBox="0 0 1440 809.999993" height="1080" preserveAspectRatio="xMidYMid meet" version="1.0"><defs><g/><clipPath id="5bd8031b54"><path d="M 170.464844 569.96875 L 418.964844 569.96875 L 418.964844 693.839844 L 170.464844 693.839844 Z M 170.464844 569.96875 " clip-rule="nonzero"/></clipPath><clipPath id="0e79f6a35e"><path d="M 170.464844 569.96875 L 418.714844 569.96875 L 418.714844 693.71875 L 170.464844 693.71875 Z M 170.464844 569.96875 " clip-rule="nonzero"/></clipPath><clipPath id="932091c615"><path d="M 95.25 115.183594 L 491.183594 115.183594 L 491.183594 221.476562 L 95.25 221.476562 Z M 95.25 115.183594 " clip-rule="nonzero"/></clipPath><clipPath id="818ee03e8e"><path d="M 148.394531 115.183594 L 438.035156 115.183594 C 452.128906 115.183594 465.648438 120.785156 475.617188 130.75 C 485.582031 140.71875 491.183594 154.234375 491.183594 168.332031 C 491.183594 182.425781 485.582031 195.945312 475.617188 205.910156 C 465.648438 215.878906 452.128906 221.476562 438.035156 221.476562 L 148.394531 221.476562 C 134.300781 221.476562 120.78125 215.878906 110.816406 205.910156 C 100.847656 195.945312 95.25 182.425781 95.25 168.332031 C 95.25 154.234375 100.847656 140.71875 110.816406 130.75 C 120.78125 120.785156 134.300781 115.183594 148.394531 115.183594 Z M 148.394531 115.183594 " clip-rule="nonzero"/></clipPath><clipPath id="c3a828bce3"><path d="M 419 521 L 539 521 L 539 585 L 419 585 Z M 419 521 " clip-rule="nonzero"/></clipPath><clipPath id="28f5af2f25"><path d="M 467.015625 622.089844 L 417.722656 581.667969 L 494.289062 488.296875 L 543.582031 528.71875 Z M 467.015625 622.089844 " clip-rule="nonzero"/></clipPath><clipPath id="976023b409"><path d="M 467.015625 622.089844 L 417.722656 581.667969 L 494.289062 488.296875 L 543.582031 528.71875 Z M 467.015625 622.089844 " clip-rule="nonzero"/></clipPath><clipPath id="202e117f2f"><path d="M 467.015625 622.089844 L 417.722656 581.667969 L 494.289062 488.296875 L 543.582031 528.71875 Z M 467.015625 622.089844 " clip-rule="nonzero"/></clipPath><clipPath id="edb6e816c9"><path d="M 95.25 337.886719 L 491.183594 337.886719 L 491.183594 448.078125 L 95.25 448.078125 Z M 95.25 337.886719 " clip-rule="nonzero"/></clipPath><clipPath id="12996fd3c4"><path d="M 150.34375 337.886719 L 436.085938 337.886719 C 466.515625 337.886719 491.183594 362.554688 491.183594 392.984375 C 491.183594 423.410156 466.515625 448.078125 436.085938 448.078125 L 150.34375 448.078125 C 119.914062 448.078125 95.25 423.410156 95.25 392.984375 C 95.25 362.554688 119.914062 337.886719 150.34375 337.886719 Z M 150.34375 337.886719 " clip-rule="nonzero"/></clipPath><clipPath id="dbf8846454"><path d="M 294.714844 253.992188 L 406.992188 253.992188 L 406.992188 305.375 L 294.714844 305.375 Z M 294.714844 253.992188 " clip-rule="nonzero"/></clipPath></defs><rect x="-144" width="1728" fill="#ffffff" y="-80.999999" height="971.999992" fill-opacity="1"/><rect x="-144" width="1728" fill="#06ad85" y="-80.999999" height="971.999992" fill-opacity="1"/><g clip-path="url(#5bd8031b54)"><path fill="#0097b2" d="M 170.464844 569.96875 L 418.964844 569.96875 L 418.964844 693.839844 L 170.464844 693.839844 Z M 170.464844 569.96875 " fill-opacity="1" fill-rule="nonzero"/></g><g clip-path="url(#0e79f6a35e)"><path stroke-linecap="butt" transform="matrix(0.75, 0, 0, 0.75, 170.464627, 569.969823)" fill="none" stroke-linejoin="miter" d="M 0.000288672 -0.0014311 L 331.32843 -0.0014311 L 331.32843 165.154827 L 0.000288672 165.154827 Z M 0.000288672 -0.0014311 " stroke="#000000" stroke-width="10" stroke-opacity="1" stroke-miterlimit="4"/></g><g clip-path="url(#932091c615)"><g clip-path="url(#818ee03e8e)"><path fill="#ffffff" d="M 95.25 115.183594 L 491.183594 115.183594 L 491.183594 221.476562 L 95.25 221.476562 Z M 95.25 115.183594 " fill-opacity="1" fill-rule="nonzero"/></g></g><g fill="#000000" fill-opacity="1"><g transform="translate(158.917074, 178.081096)"><g><path d="M 18.5 0 L 14.484375 0 L 13.03125 -4.4375 L 5.65625 -4.4375 L 4.203125 0 L 0.296875 0 L 6.953125 -19.28125 L 11.84375 -19.28125 Z M 9.15625 -15.25 L 6.6875 -7.640625 L 11.984375 -7.640625 L 9.5 -15.25 Z M 9.15625 -15.25 "/></g></g><g transform="translate(177.703694, 178.081096)"><g><path d="M 7.1875 0.28125 C 6.03125 0.28125 5.007812 0.00390625 4.125 -0.546875 C 3.25 -1.109375 2.5625 -1.953125 2.0625 -3.078125 C 1.5625 -4.210938 1.3125 -5.609375 1.3125 -7.265625 C 1.3125 -8.921875 1.566406 -10.3125 2.078125 -11.4375 C 2.585938 -12.570312 3.296875 -13.414062 4.203125 -13.96875 C 5.117188 -14.53125 6.175781 -14.8125 7.375 -14.8125 C 8.28125 -14.8125 9.0625 -14.65625 9.71875 -14.34375 C 10.382812 -14.03125 10.945312 -13.546875 11.40625 -12.890625 L 11.6875 -12.953125 L 11.6875 -20.375 L 15.328125 -20.375 L 15.328125 0 L 11.6875 0 L 11.6875 -1.890625 L 11.40625 -1.9375 C 11 -1.25 10.441406 -0.707031 9.734375 -0.3125 C 9.035156 0.0820312 8.1875 0.28125 7.1875 0.28125 Z M 8.375 -2.828125 C 9.40625 -2.828125 10.21875 -3.191406 10.8125 -3.921875 C 11.40625 -4.648438 11.703125 -5.765625 11.703125 -7.265625 C 11.703125 -8.753906 11.40625 -9.867188 10.8125 -10.609375 C 10.21875 -11.347656 9.40625 -11.71875 8.375 -11.71875 C 7.300781 -11.71875 6.476562 -11.359375 5.90625 -10.640625 C 5.34375 -9.929688 5.0625 -8.804688 5.0625 -7.265625 C 5.0625 -5.734375 5.34375 -4.609375 5.90625 -3.890625 C 6.476562 -3.179688 7.300781 -2.828125 8.375 -2.828125 Z M 8.375 -2.828125 "/></g></g><g transform="translate(195.132404, 178.081096)"><g/></g><g transform="translate(201.50008, 178.081096)"><g><path d="M 8.546875 0.28125 C 7.210938 0.28125 6.023438 0.113281 4.984375 -0.21875 C 3.941406 -0.550781 3.070312 -0.984375 2.375 -1.515625 C 1.675781 -2.054688 1.144531 -2.644531 0.78125 -3.28125 L 2.875 -5.84375 L 3.203125 -5.84375 C 3.785156 -4.976562 4.519531 -4.289062 5.40625 -3.78125 C 6.300781 -3.269531 7.347656 -3.015625 8.546875 -3.015625 C 9.566406 -3.015625 10.332031 -3.226562 10.84375 -3.65625 C 11.363281 -4.09375 11.625 -4.6875 11.625 -5.4375 C 11.625 -5.894531 11.539062 -6.273438 11.375 -6.578125 C 11.207031 -6.890625 10.929688 -7.15625 10.546875 -7.375 C 10.160156 -7.601562 9.640625 -7.796875 8.984375 -7.953125 L 6.5 -8.515625 C 4.769531 -8.910156 3.476562 -9.566406 2.625 -10.484375 C 1.78125 -11.398438 1.359375 -12.59375 1.359375 -14.0625 C 1.359375 -15.15625 1.628906 -16.113281 2.171875 -16.9375 C 2.722656 -17.769531 3.519531 -18.410156 4.5625 -18.859375 C 5.601562 -19.316406 6.847656 -19.546875 8.296875 -19.546875 C 9.773438 -19.546875 11.046875 -19.347656 12.109375 -18.953125 C 13.171875 -18.566406 14.066406 -17.972656 14.796875 -17.171875 L 12.90625 -14.578125 L 12.578125 -14.578125 C 12.035156 -15.148438 11.410156 -15.578125 10.703125 -15.859375 C 10.003906 -16.148438 9.203125 -16.296875 8.296875 -16.296875 C 7.242188 -16.296875 6.445312 -16.109375 5.90625 -15.734375 C 5.363281 -15.367188 5.09375 -14.863281 5.09375 -14.21875 C 5.09375 -13.601562 5.28125 -13.113281 5.65625 -12.75 C 6.039062 -12.394531 6.703125 -12.117188 7.640625 -11.921875 L 10.171875 -11.390625 C 12.046875 -10.992188 13.40625 -10.320312 14.25 -9.375 C 15.09375 -8.4375 15.515625 -7.207031 15.515625 -5.6875 C 15.515625 -4.476562 15.253906 -3.425781 14.734375 -2.53125 C 14.222656 -1.644531 13.441406 -0.953125 12.390625 -0.453125 C 11.347656 0.0351562 10.066406 0.28125 8.546875 0.28125 Z M 8.546875 0.28125 "/></g></g><g transform="translate(218.058673, 178.081096)"><g><path d="M 2.09375 5.890625 L 2.09375 -14.546875 L 5.75 -14.546875 L 5.75 -12.640625 L 6.03125 -12.59375 C 6.457031 -13.332031 7.03125 -13.882812 7.75 -14.25 C 8.46875 -14.625 9.3125 -14.8125 10.28125 -14.8125 C 11.445312 -14.8125 12.46875 -14.535156 13.34375 -13.984375 C 14.21875 -13.429688 14.898438 -12.585938 15.390625 -11.453125 C 15.878906 -10.328125 16.125 -8.929688 16.125 -7.265625 C 16.125 -5.597656 15.863281 -4.203125 15.34375 -3.078125 C 14.832031 -1.953125 14.117188 -1.109375 13.203125 -0.546875 C 12.296875 0.00390625 11.242188 0.28125 10.046875 0.28125 C 9.140625 0.28125 8.351562 0.128906 7.6875 -0.171875 C 7.03125 -0.484375 6.476562 -0.957031 6.03125 -1.59375 L 5.75 -1.546875 L 5.75 5.890625 Z M 9.03125 -2.828125 C 10.125 -2.828125 10.953125 -3.179688 11.515625 -3.890625 C 12.078125 -4.597656 12.359375 -5.722656 12.359375 -7.265625 C 12.359375 -8.804688 12.078125 -9.929688 11.515625 -10.640625 C 10.953125 -11.359375 10.125 -11.71875 9.03125 -11.71875 C 8.007812 -11.71875 7.195312 -11.347656 6.59375 -10.609375 C 6 -9.867188 5.703125 -8.753906 5.703125 -7.265625 C 5.703125 -5.773438 6 -4.660156 6.59375 -3.921875 C 7.195312 -3.191406 8.007812 -2.828125 9.03125 -2.828125 Z M 9.03125 -2.828125 "/></g></g><g transform="translate(235.474199, 178.081096)"><g><path d="M 14.375 -6.453125 L 5.015625 -6.453125 C 5.128906 -5.179688 5.492188 -4.257812 6.109375 -3.6875 C 6.722656 -3.113281 7.5625 -2.828125 8.625 -2.828125 C 9.457031 -2.828125 10.132812 -2.976562 10.65625 -3.28125 C 11.175781 -3.59375 11.59375 -4.066406 11.90625 -4.703125 L 12.1875 -4.703125 L 14.609375 -3.15625 C 14.128906 -2.132812 13.410156 -1.304688 12.453125 -0.671875 C 11.492188 -0.0351562 10.21875 0.28125 8.625 0.28125 C 7.125 0.28125 5.820312 -0.00390625 4.71875 -0.578125 C 3.625 -1.148438 2.78125 -2 2.1875 -3.125 C 1.601562 -4.257812 1.3125 -5.640625 1.3125 -7.265625 C 1.3125 -8.921875 1.617188 -10.3125 2.234375 -11.4375 C 2.859375 -12.570312 3.703125 -13.414062 4.765625 -13.96875 C 5.835938 -14.53125 7.035156 -14.8125 8.359375 -14.8125 C 10.410156 -14.8125 11.984375 -14.265625 13.078125 -13.171875 C 14.171875 -12.085938 14.71875 -10.492188 14.71875 -8.390625 C 14.71875 -7.617188 14.691406 -7.023438 14.640625 -6.609375 Z M 11.234375 -8.8125 C 11.203125 -9.914062 10.945312 -10.71875 10.46875 -11.21875 C 9.988281 -11.726562 9.285156 -11.984375 8.359375 -11.984375 C 6.515625 -11.984375 5.429688 -10.925781 5.109375 -8.8125 Z M 11.234375 -8.8125 "/></g></g><g transform="translate(251.281327, 178.081096)"><g><path d="M 2.09375 0 L 2.09375 -14.546875 L 5.609375 -14.546875 L 5.609375 -12.40625 L 5.875 -12.34375 C 6.78125 -13.988281 8.25 -14.8125 10.28125 -14.8125 C 11.957031 -14.8125 13.1875 -14.351562 13.96875 -13.4375 C 14.757812 -12.53125 15.15625 -11.203125 15.15625 -9.453125 L 15.15625 0 L 11.515625 0 L 11.515625 -9 C 11.515625 -9.96875 11.316406 -10.664062 10.921875 -11.09375 C 10.535156 -11.519531 9.921875 -11.734375 9.078125 -11.734375 C 8.023438 -11.734375 7.207031 -11.394531 6.625 -10.71875 C 6.039062 -10.039062 5.75 -8.976562 5.75 -7.53125 L 5.75 0 Z M 2.09375 0 "/></g></g><g transform="translate(268.31453, 178.081096)"><g><path d="M 7.1875 0.28125 C 6.03125 0.28125 5.007812 0.00390625 4.125 -0.546875 C 3.25 -1.109375 2.5625 -1.953125 2.0625 -3.078125 C 1.5625 -4.210938 1.3125 -5.609375 1.3125 -7.265625 C 1.3125 -8.921875 1.566406 -10.3125 2.078125 -11.4375 C 2.585938 -12.570312 3.296875 -13.414062 4.203125 -13.96875 C 5.117188 -14.53125 6.175781 -14.8125 7.375 -14.8125 C 8.28125 -14.8125 9.0625 -14.65625 9.71875 -14.34375 C 10.382812 -14.03125 10.945312 -13.546875 11.40625 -12.890625 L 11.6875 -12.953125 L 11.6875 -20.375 L 15.328125 -20.375 L 15.328125 0 L 11.6875 0 L 11.6875 -1.890625 L 11.40625 -1.9375 C 11 -1.25 10.441406 -0.707031 9.734375 -0.3125 C 9.035156 0.0820312 8.1875 0.28125 7.1875 0.28125 Z M 8.375 -2.828125 C 9.40625 -2.828125 10.21875 -3.191406 10.8125 -3.921875 C 11.40625 -4.648438 11.703125 -5.765625 11.703125 -7.265625 C 11.703125 -8.753906 11.40625 -9.867188 10.8125 -10.609375 C 10.21875 -11.347656 9.40625 -11.71875 8.375 -11.71875 C 7.300781 -11.71875 6.476562 -11.359375 5.90625 -10.640625 C 5.34375 -9.929688 5.0625 -8.804688 5.0625 -7.265625 C 5.0625 -5.734375 5.34375 -4.609375 5.90625 -3.890625 C 6.476562 -3.179688 7.300781 -2.828125 8.375 -2.828125 Z M 8.375 -2.828125 "/></g></g><g transform="translate(285.74324, 178.081096)"><g/></g><g transform="translate(292.110915, 178.081096)"><g><path d="M 8.453125 0.28125 C 7.023438 0.28125 5.769531 -0.0078125 4.6875 -0.59375 C 3.613281 -1.1875 2.78125 -2.046875 2.1875 -3.171875 C 1.601562 -4.296875 1.3125 -5.660156 1.3125 -7.265625 C 1.3125 -8.859375 1.601562 -10.222656 2.1875 -11.359375 C 2.78125 -12.492188 3.613281 -13.351562 4.6875 -13.9375 C 5.769531 -14.519531 7.023438 -14.8125 8.453125 -14.8125 C 9.878906 -14.8125 11.128906 -14.519531 12.203125 -13.9375 C 13.273438 -13.351562 14.109375 -12.492188 14.703125 -11.359375 C 15.304688 -10.222656 15.609375 -8.859375 15.609375 -7.265625 C 15.609375 -5.660156 15.304688 -4.296875 14.703125 -3.171875 C 14.109375 -2.046875 13.273438 -1.1875 12.203125 -0.59375 C 11.128906 -0.0078125 9.878906 0.28125 8.453125 0.28125 Z M 8.453125 -2.828125 C 10.710938 -2.828125 11.84375 -4.304688 11.84375 -7.265625 C 11.84375 -8.804688 11.550781 -9.929688 10.96875 -10.640625 C 10.382812 -11.359375 9.546875 -11.71875 8.453125 -11.71875 C 6.191406 -11.71875 5.0625 -10.234375 5.0625 -7.265625 C 5.0625 -4.304688 6.191406 -2.828125 8.453125 -2.828125 Z M 8.453125 -2.828125 "/></g></g><g transform="translate(309.012281, 178.081096)"><g><path d="M 10 0 L 5.65625 0 L 0.28125 -14.546875 L 4.09375 -14.546875 L 7.71875 -4.171875 L 8.015625 -4.171875 L 11.640625 -14.546875 L 15.375 -14.546875 Z M 10 0 "/></g></g><g transform="translate(324.648022, 178.081096)"><g><path d="M 14.375 -6.453125 L 5.015625 -6.453125 C 5.128906 -5.179688 5.492188 -4.257812 6.109375 -3.6875 C 6.722656 -3.113281 7.5625 -2.828125 8.625 -2.828125 C 9.457031 -2.828125 10.132812 -2.976562 10.65625 -3.28125 C 11.175781 -3.59375 11.59375 -4.066406 11.90625 -4.703125 L 12.1875 -4.703125 L 14.609375 -3.15625 C 14.128906 -2.132812 13.410156 -1.304688 12.453125 -0.671875 C 11.492188 -0.0351562 10.21875 0.28125 8.625 0.28125 C 7.125 0.28125 5.820312 -0.00390625 4.71875 -0.578125 C 3.625 -1.148438 2.78125 -2 2.1875 -3.125 C 1.601562 -4.257812 1.3125 -5.640625 1.3125 -7.265625 C 1.3125 -8.921875 1.617188 -10.3125 2.234375 -11.4375 C 2.859375 -12.570312 3.703125 -13.414062 4.765625 -13.96875 C 5.835938 -14.53125 7.035156 -14.8125 8.359375 -14.8125 C 10.410156 -14.8125 11.984375 -14.265625 13.078125 -13.171875 C 14.171875 -12.085938 14.71875 -10.492188 14.71875 -8.390625 C 14.71875 -7.617188 14.691406 -7.023438 14.640625 -6.609375 Z M 11.234375 -8.8125 C 11.203125 -9.914062 10.945312 -10.71875 10.46875 -11.21875 C 9.988281 -11.726562 9.285156 -11.984375 8.359375 -11.984375 C 6.515625 -11.984375 5.429688 -10.925781 5.109375 -8.8125 Z M 11.234375 -8.8125 "/></g></g><g transform="translate(340.455151, 178.081096)"><g><path d="M 2.09375 0 L 2.09375 -14.546875 L 5.640625 -14.546875 L 5.640625 -12.375 L 5.921875 -12.328125 C 6.273438 -13.140625 6.734375 -13.734375 7.296875 -14.109375 C 7.867188 -14.484375 8.566406 -14.671875 9.390625 -14.671875 C 10.210938 -14.671875 10.835938 -14.53125 11.265625 -14.25 L 10.65625 -11.09375 L 10.375 -11.046875 C 10.132812 -11.140625 9.90625 -11.207031 9.6875 -11.25 C 9.46875 -11.300781 9.203125 -11.328125 8.890625 -11.328125 C 7.867188 -11.328125 7.085938 -10.96875 6.546875 -10.25 C 6.015625 -9.53125 5.75 -8.378906 5.75 -6.796875 L 5.75 0 Z M 2.09375 0 "/></g></g><g transform="translate(351.858959, 178.081096)"><g/></g><g transform="translate(358.226634, 178.081096)"><g><path d="M 15.515625 -5.6875 C 15.515625 -4.019531 15.023438 -2.664062 14.046875 -1.625 C 13.078125 -0.582031 11.648438 0.03125 9.765625 0.21875 L 9.765625 3.03125 L 6.828125 3.03125 L 6.828125 0.171875 C 5.335938 -0.015625 4.078125 -0.421875 3.046875 -1.046875 C 2.023438 -1.679688 1.269531 -2.425781 0.78125 -3.28125 L 2.75 -5.703125 L 3.078125 -5.703125 C 3.523438 -5.054688 4.0625 -4.503906 4.6875 -4.046875 C 5.3125 -3.585938 6.023438 -3.265625 6.828125 -3.078125 L 6.828125 -8.5625 L 6.5 -8.65625 C 4.757812 -9.039062 3.46875 -9.671875 2.625 -10.546875 C 1.78125 -11.429688 1.359375 -12.601562 1.359375 -14.0625 C 1.359375 -15.03125 1.570312 -15.894531 2 -16.65625 C 2.425781 -17.414062 3.050781 -18.035156 3.875 -18.515625 C 4.695312 -19.003906 5.679688 -19.316406 6.828125 -19.453125 L 6.828125 -22.3125 L 9.765625 -22.3125 L 9.765625 -19.484375 C 10.867188 -19.367188 11.828125 -19.125 12.640625 -18.75 C 13.460938 -18.375 14.179688 -17.847656 14.796875 -17.171875 L 13.015625 -14.71875 L 12.6875 -14.71875 C 11.90625 -15.53125 10.929688 -16.054688 9.765625 -16.296875 L 9.765625 -11.34375 L 10.171875 -11.265625 C 12.066406 -10.859375 13.429688 -10.203125 14.265625 -9.296875 C 15.097656 -8.390625 15.515625 -7.1875 15.515625 -5.6875 Z M 4.90625 -14.21875 C 4.90625 -13.6875 5.050781 -13.242188 5.34375 -12.890625 C 5.632812 -12.546875 6.128906 -12.257812 6.828125 -12.03125 L 6.828125 -16.265625 C 6.179688 -16.117188 5.695312 -15.863281 5.375 -15.5 C 5.0625 -15.144531 4.90625 -14.71875 4.90625 -14.21875 Z M 9.765625 -3 C 10.453125 -3.144531 10.960938 -3.429688 11.296875 -3.859375 C 11.640625 -4.296875 11.8125 -4.820312 11.8125 -5.4375 C 11.8125 -6.03125 11.65625 -6.519531 11.34375 -6.90625 C 11.039062 -7.289062 10.515625 -7.609375 9.765625 -7.859375 Z M 9.765625 -3 "/></g></g><g transform="translate(374.785227, 178.081096)"><g><path d="M 0.9375 -1.53125 C 0.9375 -2.59375 1.050781 -3.488281 1.28125 -4.21875 C 1.519531 -4.945312 1.898438 -5.613281 2.421875 -6.21875 C 2.953125 -6.820312 3.703125 -7.46875 4.671875 -8.15625 L 7.234375 -10.015625 C 7.941406 -10.515625 8.488281 -10.945312 8.875 -11.3125 C 9.269531 -11.6875 9.566406 -12.078125 9.765625 -12.484375 C 9.960938 -12.890625 10.0625 -13.351562 10.0625 -13.875 C 10.0625 -14.65625 9.820312 -15.257812 9.34375 -15.6875 C 8.875 -16.113281 8.164062 -16.328125 7.21875 -16.328125 C 6.300781 -16.328125 5.484375 -16.109375 4.765625 -15.671875 C 4.054688 -15.234375 3.46875 -14.632812 3 -13.875 L 2.75 -13.8125 L 0.65625 -16.15625 C 1.34375 -17.175781 2.238281 -17.992188 3.34375 -18.609375 C 4.445312 -19.234375 5.785156 -19.546875 7.359375 -19.546875 C 8.796875 -19.546875 10 -19.304688 10.96875 -18.828125 C 11.945312 -18.359375 12.671875 -17.710938 13.140625 -16.890625 C 13.609375 -16.066406 13.84375 -15.125 13.84375 -14.0625 C 13.84375 -13.15625 13.648438 -12.320312 13.265625 -11.5625 C 12.890625 -10.800781 12.363281 -10.097656 11.6875 -9.453125 C 11.007812 -8.816406 10.140625 -8.128906 9.078125 -7.390625 L 6.796875 -5.796875 C 6.117188 -5.304688 5.640625 -4.867188 5.359375 -4.484375 C 5.085938 -4.109375 4.953125 -3.675781 4.953125 -3.1875 L 13.65625 -3.1875 L 13.65625 0 L 0.9375 0 Z M 0.9375 -1.53125 "/></g></g><g transform="translate(389.827707, 178.081096)"><g><path d="M 9.40625 0.28125 C 7.832031 0.28125 6.460938 -0.0664062 5.296875 -0.765625 C 4.140625 -1.460938 3.238281 -2.550781 2.59375 -4.03125 C 1.945312 -5.507812 1.625 -7.378906 1.625 -9.640625 C 1.625 -11.898438 1.945312 -13.765625 2.59375 -15.234375 C 3.238281 -16.710938 4.140625 -17.800781 5.296875 -18.5 C 6.460938 -19.195312 7.832031 -19.546875 9.40625 -19.546875 C 10.988281 -19.546875 12.363281 -19.195312 13.53125 -18.5 C 14.695312 -17.800781 15.601562 -16.710938 16.25 -15.234375 C 16.894531 -13.765625 17.21875 -11.898438 17.21875 -9.640625 C 17.21875 -7.378906 16.894531 -5.507812 16.25 -4.03125 C 15.601562 -2.550781 14.695312 -1.460938 13.53125 -0.765625 C 12.363281 -0.0664062 10.988281 0.28125 9.40625 0.28125 Z M 9.40625 -2.953125 C 10.269531 -2.953125 10.992188 -3.160156 11.578125 -3.578125 C 12.160156 -3.992188 12.601562 -4.691406 12.90625 -5.671875 C 13.21875 -6.660156 13.375 -7.984375 13.375 -9.640625 C 13.375 -11.285156 13.21875 -12.597656 12.90625 -13.578125 C 12.601562 -14.566406 12.160156 -15.269531 11.578125 -15.6875 C 10.992188 -16.113281 10.269531 -16.328125 9.40625 -16.328125 C 8.550781 -16.328125 7.832031 -16.113281 7.25 -15.6875 C 6.664062 -15.269531 6.21875 -14.566406 5.90625 -13.578125 C 5.59375 -12.597656 5.4375 -11.285156 5.4375 -9.640625 C 5.4375 -7.984375 5.59375 -6.660156 5.90625 -5.671875 C 6.21875 -4.691406 6.664062 -3.992188 7.25 -3.578125 C 7.832031 -3.160156 8.550781 -2.953125 9.40625 -2.953125 Z M 9.40625 -2.953125 "/></g></g><g transform="translate(408.667061, 178.081096)"><g><path d="M 9.40625 0.28125 C 7.832031 0.28125 6.460938 -0.0664062 5.296875 -0.765625 C 4.140625 -1.460938 3.238281 -2.550781 2.59375 -4.03125 C 1.945312 -5.507812 1.625 -7.378906 1.625 -9.640625 C 1.625 -11.898438 1.945312 -13.765625 2.59375 -15.234375 C 3.238281 -16.710938 4.140625 -17.800781 5.296875 -18.5 C 6.460938 -19.195312 7.832031 -19.546875 9.40625 -19.546875 C 10.988281 -19.546875 12.363281 -19.195312 13.53125 -18.5 C 14.695312 -17.800781 15.601562 -16.710938 16.25 -15.234375 C 16.894531 -13.765625 17.21875 -11.898438 17.21875 -9.640625 C 17.21875 -7.378906 16.894531 -5.507812 16.25 -4.03125 C 15.601562 -2.550781 14.695312 -1.460938 13.53125 -0.765625 C 12.363281 -0.0664062 10.988281 0.28125 9.40625 0.28125 Z M 9.40625 -2.953125 C 10.269531 -2.953125 10.992188 -3.160156 11.578125 -3.578125 C 12.160156 -3.992188 12.601562 -4.691406 12.90625 -5.671875 C 13.21875 -6.660156 13.375 -7.984375 13.375 -9.640625 C 13.375 -11.285156 13.21875 -12.597656 12.90625 -13.578125 C 12.601562 -14.566406 12.160156 -15.269531 11.578125 -15.6875 C 10.992188 -16.113281 10.269531 -16.328125 9.40625 -16.328125 C 8.550781 -16.328125 7.832031 -16.113281 7.25 -15.6875 C 6.664062 -15.269531 6.21875 -14.566406 5.90625 -13.578125 C 5.59375 -12.597656 5.4375 -11.285156 5.4375 -9.640625 C 5.4375 -7.984375 5.59375 -6.660156 5.90625 -5.671875 C 6.21875 -4.691406 6.664062 -3.992188 7.25 -3.578125 C 7.832031 -3.160156 8.550781 -2.953125 9.40625 -2.953125 Z M 9.40625 -2.953125 "/></g></g></g><g clip-path="url(#c3a828bce3)"><g clip-path="url(#28f5af2f25)"><g clip-path="url(#976023b409)"><g clip-path="url(#202e117f2f)"><path fill="#000000" d="M 420.203125 579.355469 C 438.222656 561.425781 466.132812 544.550781 493.019531 536.089844 C 503.542969 533.269531 514.246094 531.542969 525.121094 530.910156 C 522.207031 530.070312 518.964844 529.207031 516.242188 528.613281 C 513.171875 527.851562 513.257812 527.890625 511.34375 527.34375 L 511.386719 527.359375 C 511.355469 527.355469 511.332031 527.335938 511.304688 527.332031 L 511.082031 527.265625 C 510.332031 527.054688 510.898438 527.207031 511.214844 527.300781 C 510.90625 527.230469 510.613281 527.117188 510.339844 526.957031 C 510.066406 526.796875 509.824219 526.597656 509.613281 526.363281 C 509.402344 526.125 509.230469 525.863281 509.101562 525.574219 C 508.972656 525.285156 508.890625 524.984375 508.855469 524.667969 C 509.042969 518.863281 516.507812 522.25 521.007812 523.046875 C 525.136719 524.644531 540.621094 526.3125 538.648438 532.550781 C 538.683594 532.828125 538.691406 533.109375 538.664062 533.390625 C 538.640625 533.667969 538.582031 533.941406 538.492188 534.210938 C 538.398438 534.476562 538.28125 534.730469 538.128906 534.96875 C 537.980469 535.207031 537.804688 535.425781 537.605469 535.625 C 537.40625 535.820312 537.183594 535.996094 536.945312 536.140625 C 536.703125 536.289062 536.449219 536.402344 536.179688 536.492188 C 535.914062 536.578125 535.640625 536.632812 535.359375 536.65625 C 535.078125 536.679688 534.800781 536.667969 534.519531 536.625 C 529.085938 540.761719 523.550781 544.796875 518.074219 548.882812 C 517.53125 549.25 516.933594 549.441406 516.277344 549.453125 C 515.621094 549.46875 515.015625 549.300781 514.457031 548.953125 C 513.902344 548.609375 513.484375 548.136719 513.207031 547.542969 C 512.929688 546.949219 512.839844 546.328125 512.929688 545.679688 C 513.671875 542.847656 517.121094 541.859375 519.109375 539.972656 C 520.085938 539.242188 521.066406 538.519531 522.046875 537.789062 C 509.722656 538.996094 498.203125 540.542969 487.300781 544.9375 C 476.304688 549.203125 465.75 554.371094 455.632812 560.4375 C 445.519531 566.503906 435.988281 573.386719 427.042969 581.078125 C 425.527344 582.074219 424.339844 583.875 422.488281 584.199219 C 422.1875 584.21875 421.886719 584.195312 421.59375 584.125 C 421.300781 584.054688 421.023438 583.9375 420.765625 583.777344 C 420.507812 583.617188 420.28125 583.421875 420.085938 583.191406 C 419.890625 582.960938 419.734375 582.703125 419.621094 582.421875 C 419.507812 582.144531 419.441406 581.851562 419.417969 581.546875 C 419.398438 581.246094 419.421875 580.949219 419.496094 580.652344 C 419.570312 580.359375 419.6875 580.082031 419.847656 579.824219 C 420.007812 579.566406 420.203125 579.339844 420.4375 579.144531 C 420.25 579.320312 419.996094 579.554688 420.203125 579.355469 Z M 420.203125 579.355469 " fill-opacity="1" fill-rule="nonzero"/></g></g></g></g><g clip-path="url(#edb6e816c9)"><g clip-path="url(#12996fd3c4)"><path fill="#ffffff" d="M 95.25 337.886719 L 491.183594 337.886719 L 491.183594 448.078125 L 95.25 448.078125 Z M 95.25 337.886719 " fill-opacity="1" fill-rule="nonzero"/></g></g><g fill="#000000" fill-opacity="1"><g transform="translate(186.608479, 402.733301)"><g><path d="M 9.953125 -19.28125 C 11.335938 -19.28125 12.519531 -19.023438 13.5 -18.515625 C 14.476562 -18.015625 15.21875 -17.304688 15.71875 -16.390625 C 16.21875 -15.484375 16.46875 -14.425781 16.46875 -13.21875 C 16.46875 -12.019531 16.21875 -10.96875 15.71875 -10.0625 C 15.21875 -9.15625 14.476562 -8.445312 13.5 -7.9375 C 12.519531 -7.4375 11.335938 -7.1875 9.953125 -7.1875 L 6.3125 -7.1875 L 6.3125 0 L 2.5 0 L 2.5 -19.28125 Z M 9.453125 -10.203125 C 11.566406 -10.203125 12.625 -11.207031 12.625 -13.21875 C 12.625 -15.238281 11.566406 -16.25 9.453125 -16.25 L 6.3125 -16.25 L 6.3125 -10.203125 Z M 9.453125 -10.203125 "/></g></g><g transform="translate(204.221759, 402.733301)"><g><path d="M 2.09375 0 L 2.09375 -14.546875 L 5.640625 -14.546875 L 5.640625 -12.375 L 5.921875 -12.328125 C 6.273438 -13.140625 6.734375 -13.734375 7.296875 -14.109375 C 7.867188 -14.484375 8.566406 -14.671875 9.390625 -14.671875 C 10.210938 -14.671875 10.835938 -14.53125 11.265625 -14.25 L 10.65625 -11.09375 L 10.375 -11.046875 C 10.132812 -11.140625 9.90625 -11.207031 9.6875 -11.25 C 9.46875 -11.300781 9.203125 -11.328125 8.890625 -11.328125 C 7.867188 -11.328125 7.085938 -10.96875 6.546875 -10.25 C 6.015625 -9.53125 5.75 -8.378906 5.75 -6.796875 L 5.75 0 Z M 2.09375 0 "/></g></g><g transform="translate(215.625567, 402.733301)"><g><path d="M 8.453125 0.28125 C 7.023438 0.28125 5.769531 -0.0078125 4.6875 -0.59375 C 3.613281 -1.1875 2.78125 -2.046875 2.1875 -3.171875 C 1.601562 -4.296875 1.3125 -5.660156 1.3125 -7.265625 C 1.3125 -8.859375 1.601562 -10.222656 2.1875 -11.359375 C 2.78125 -12.492188 3.613281 -13.351562 4.6875 -13.9375 C 5.769531 -14.519531 7.023438 -14.8125 8.453125 -14.8125 C 9.878906 -14.8125 11.128906 -14.519531 12.203125 -13.9375 C 13.273438 -13.351562 14.109375 -12.492188 14.703125 -11.359375 C 15.304688 -10.222656 15.609375 -8.859375 15.609375 -7.265625 C 15.609375 -5.660156 15.304688 -4.296875 14.703125 -3.171875 C 14.109375 -2.046875 13.273438 -1.1875 12.203125 -0.59375 C 11.128906 -0.0078125 9.878906 0.28125 8.453125 0.28125 Z M 8.453125 -2.828125 C 10.710938 -2.828125 11.84375 -4.304688 11.84375 -7.265625 C 11.84375 -8.804688 11.550781 -9.929688 10.96875 -10.640625 C 10.382812 -11.359375 9.546875 -11.71875 8.453125 -11.71875 C 6.191406 -11.71875 5.0625 -10.234375 5.0625 -7.265625 C 5.0625 -4.304688 6.191406 -2.828125 8.453125 -2.828125 Z M 8.453125 -2.828125 "/></g></g><g transform="translate(232.526934, 402.733301)"><g><path d="M 2.546875 0 L 2.546875 -11.65625 L 0.484375 -11.65625 L 0.484375 -14.5625 L 2.546875 -14.5625 C 2.398438 -15.175781 2.328125 -15.75 2.328125 -16.28125 C 2.328125 -17.207031 2.535156 -17.992188 2.953125 -18.640625 C 3.378906 -19.296875 3.984375 -19.796875 4.765625 -20.140625 C 5.554688 -20.484375 6.5 -20.65625 7.59375 -20.65625 C 9.195312 -20.65625 10.394531 -20.378906 11.1875 -19.828125 L 10.34375 -17.140625 L 10.0625 -17.09375 C 9.507812 -17.476562 8.8125 -17.671875 7.96875 -17.671875 C 7.300781 -17.671875 6.800781 -17.507812 6.46875 -17.1875 C 6.144531 -16.863281 5.984375 -16.425781 5.984375 -15.875 C 5.984375 -15.632812 6 -15.414062 6.03125 -15.21875 C 6.0625 -15.019531 6.117188 -14.800781 6.203125 -14.5625 L 10.34375 -14.5625 L 10.34375 -11.65625 L 6.203125 -11.65625 L 6.203125 0 Z M 2.546875 0 "/></g></g><g transform="translate(243.021074, 402.733301)"><g><path d="M 3.921875 -16.28125 C 3.253906 -16.28125 2.710938 -16.476562 2.296875 -16.875 C 1.890625 -17.28125 1.6875 -17.800781 1.6875 -18.4375 C 1.6875 -19.050781 1.890625 -19.554688 2.296875 -19.953125 C 2.710938 -20.359375 3.253906 -20.5625 3.921875 -20.5625 C 4.359375 -20.5625 4.75 -20.46875 5.09375 -20.28125 C 5.4375 -20.101562 5.703125 -19.851562 5.890625 -19.53125 C 6.078125 -19.207031 6.171875 -18.84375 6.171875 -18.4375 C 6.171875 -18.019531 6.078125 -17.644531 5.890625 -17.3125 C 5.703125 -16.988281 5.4375 -16.734375 5.09375 -16.546875 C 4.75 -16.367188 4.359375 -16.28125 3.921875 -16.28125 Z M 2.09375 0 L 2.09375 -14.546875 L 5.75 -14.546875 L 5.75 0 Z M 2.09375 0 "/></g></g><g transform="translate(250.852128, 402.733301)"><g><path d="M 10.03125 -3.46875 L 10.984375 -0.765625 C 10.585938 -0.441406 10.085938 -0.1875 9.484375 0 C 8.890625 0.1875 8.21875 0.28125 7.46875 0.28125 C 5.894531 0.28125 4.695312 -0.144531 3.875 -1 C 3.0625 -1.863281 2.65625 -3.113281 2.65625 -4.75 L 2.65625 -11.65625 L 0.4375 -11.65625 L 0.4375 -14.5625 L 2.65625 -14.5625 L 2.65625 -17.390625 L 6.296875 -17.984375 L 6.296875 -14.5625 L 10.421875 -14.5625 L 10.421875 -11.65625 L 6.296875 -11.65625 L 6.296875 -5.015625 C 6.296875 -4.285156 6.445312 -3.753906 6.75 -3.421875 C 7.050781 -3.097656 7.488281 -2.9375 8.0625 -2.9375 C 8.707031 -2.9375 9.269531 -3.113281 9.75 -3.46875 Z M 10.03125 -3.46875 "/></g></g><g transform="translate(262.150467, 402.733301)"><g><path d="M 5.671875 0.28125 C 4.734375 0.28125 3.921875 0.109375 3.234375 -0.234375 C 2.554688 -0.578125 2.03125 -1.082031 1.65625 -1.75 C 1.289062 -2.414062 1.109375 -3.210938 1.109375 -4.140625 C 1.109375 -5.003906 1.289062 -5.726562 1.65625 -6.3125 C 2.03125 -6.894531 2.601562 -7.375 3.375 -7.75 C 4.144531 -8.125 5.15625 -8.410156 6.40625 -8.609375 C 7.28125 -8.742188 7.941406 -8.894531 8.390625 -9.0625 C 8.847656 -9.238281 9.15625 -9.429688 9.3125 -9.640625 C 9.46875 -9.847656 9.546875 -10.113281 9.546875 -10.4375 C 9.546875 -10.90625 9.378906 -11.257812 9.046875 -11.5 C 8.722656 -11.75 8.1875 -11.875 7.4375 -11.875 C 6.625 -11.875 5.851562 -11.691406 5.125 -11.328125 C 4.394531 -10.972656 3.765625 -10.503906 3.234375 -9.921875 L 2.96875 -9.921875 L 1.4375 -12.21875 C 2.175781 -13.039062 3.078125 -13.675781 4.140625 -14.125 C 5.203125 -14.582031 6.363281 -14.8125 7.625 -14.8125 C 9.539062 -14.8125 10.929688 -14.398438 11.796875 -13.578125 C 12.660156 -12.765625 13.09375 -11.609375 13.09375 -10.109375 L 13.09375 -3.796875 C 13.09375 -3.148438 13.378906 -2.828125 13.953125 -2.828125 C 14.171875 -2.828125 14.382812 -2.863281 14.59375 -2.9375 L 14.78125 -2.890625 L 15.046875 -0.34375 C 14.835938 -0.207031 14.550781 -0.0976562 14.1875 -0.015625 C 13.832031 0.0664062 13.441406 0.109375 13.015625 0.109375 C 12.140625 0.109375 11.457031 -0.0546875 10.96875 -0.390625 C 10.488281 -0.722656 10.140625 -1.25 9.921875 -1.96875 L 9.65625 -1.984375 C 8.9375 -0.472656 7.609375 0.28125 5.671875 0.28125 Z M 6.828125 -2.453125 C 7.671875 -2.453125 8.34375 -2.734375 8.84375 -3.296875 C 9.351562 -3.867188 9.609375 -4.660156 9.609375 -5.671875 L 9.609375 -7.140625 L 9.359375 -7.203125 C 9.140625 -7.023438 8.851562 -6.875 8.5 -6.75 C 8.144531 -6.632812 7.632812 -6.519531 6.96875 -6.40625 C 6.175781 -6.269531 5.601562 -6.039062 5.25 -5.71875 C 4.90625 -5.40625 4.734375 -4.953125 4.734375 -4.359375 C 4.734375 -3.734375 4.914062 -3.257812 5.28125 -2.9375 C 5.65625 -2.613281 6.171875 -2.453125 6.828125 -2.453125 Z M 6.828125 -2.453125 "/></g></g><g transform="translate(277.482986, 402.733301)"><g><path d="M 10.171875 0.28125 C 8.316406 0.28125 6.9375 -0.414062 6.03125 -1.8125 L 5.75 -1.75 L 5.75 0 L 2.09375 0 L 2.09375 -20.375 L 5.75 -20.375 L 5.75 -12.828125 L 6.03125 -12.78125 C 6.53125 -13.46875 7.117188 -13.976562 7.796875 -14.3125 C 8.472656 -14.644531 9.289062 -14.8125 10.25 -14.8125 C 11.425781 -14.8125 12.453125 -14.535156 13.328125 -13.984375 C 14.203125 -13.429688 14.882812 -12.585938 15.375 -11.453125 C 15.875 -10.328125 16.125 -8.929688 16.125 -7.265625 C 16.125 -5.609375 15.867188 -4.210938 15.359375 -3.078125 C 14.847656 -1.953125 14.144531 -1.109375 13.25 -0.546875 C 12.351562 0.00390625 11.328125 0.28125 10.171875 0.28125 Z M 9.0625 -2.828125 C 10.132812 -2.828125 10.953125 -3.179688 11.515625 -3.890625 C 12.078125 -4.609375 12.359375 -5.734375 12.359375 -7.265625 C 12.359375 -8.804688 12.078125 -9.929688 11.515625 -10.640625 C 10.953125 -11.359375 10.132812 -11.71875 9.0625 -11.71875 C 8.03125 -11.71875 7.210938 -11.347656 6.609375 -10.609375 C 6.003906 -9.867188 5.703125 -8.753906 5.703125 -7.265625 C 5.703125 -5.765625 6.003906 -4.648438 6.609375 -3.921875 C 7.210938 -3.191406 8.03125 -2.828125 9.0625 -2.828125 Z M 9.0625 -2.828125 "/></g></g><g transform="translate(294.898512, 402.733301)"><g><path d="M 6.03125 0.28125 C 4.726562 0.28125 3.726562 -0.0703125 3.03125 -0.78125 C 2.34375 -1.488281 2 -2.566406 2 -4.015625 L 2 -20.375 L 5.65625 -20.375 L 5.65625 -4.15625 C 5.65625 -3.269531 6.023438 -2.828125 6.765625 -2.828125 C 6.972656 -2.828125 7.195312 -2.859375 7.4375 -2.921875 L 7.625 -2.875 L 7.953125 -0.0625 C 7.742188 0.0390625 7.472656 0.125 7.140625 0.1875 C 6.804688 0.25 6.4375 0.28125 6.03125 0.28125 Z M 6.03125 0.28125 "/></g></g><g transform="translate(303.25691, 402.733301)"><g><path d="M 14.375 -6.453125 L 5.015625 -6.453125 C 5.128906 -5.179688 5.492188 -4.257812 6.109375 -3.6875 C 6.722656 -3.113281 7.5625 -2.828125 8.625 -2.828125 C 9.457031 -2.828125 10.132812 -2.976562 10.65625 -3.28125 C 11.175781 -3.59375 11.59375 -4.066406 11.90625 -4.703125 L 12.1875 -4.703125 L 14.609375 -3.15625 C 14.128906 -2.132812 13.410156 -1.304688 12.453125 -0.671875 C 11.492188 -0.0351562 10.21875 0.28125 8.625 0.28125 C 7.125 0.28125 5.820312 -0.00390625 4.71875 -0.578125 C 3.625 -1.148438 2.78125 -2 2.1875 -3.125 C 1.601562 -4.257812 1.3125 -5.640625 1.3125 -7.265625 C 1.3125 -8.921875 1.617188 -10.3125 2.234375 -11.4375 C 2.859375 -12.570312 3.703125 -13.414062 4.765625 -13.96875 C 5.835938 -14.53125 7.035156 -14.8125 8.359375 -14.8125 C 10.410156 -14.8125 11.984375 -14.265625 13.078125 -13.171875 C 14.171875 -12.085938 14.71875 -10.492188 14.71875 -8.390625 C 14.71875 -7.617188 14.691406 -7.023438 14.640625 -6.609375 Z M 11.234375 -8.8125 C 11.203125 -9.914062 10.945312 -10.71875 10.46875 -11.21875 C 9.988281 -11.726562 9.285156 -11.984375 8.359375 -11.984375 C 6.515625 -11.984375 5.429688 -10.925781 5.109375 -8.8125 Z M 11.234375 -8.8125 "/></g></g><g transform="translate(319.064039, 402.733301)"><g/></g><g transform="translate(325.431714, 402.733301)"><g><path d="M 2.5 0 L 2.5 -19.28125 L 10.25 -19.28125 C 12.238281 -19.28125 13.738281 -18.816406 14.75 -17.890625 C 15.769531 -16.972656 16.28125 -15.707031 16.28125 -14.09375 C 16.28125 -12.925781 15.984375 -11.96875 15.390625 -11.21875 C 14.796875 -10.46875 13.910156 -9.894531 12.734375 -9.5 L 12.734375 -9.234375 C 13.335938 -8.960938 13.828125 -8.566406 14.203125 -8.046875 C 14.578125 -7.535156 14.929688 -6.769531 15.265625 -5.75 L 17.1875 0 L 13.28125 0 L 11.390625 -5.765625 C 11.191406 -6.335938 10.972656 -6.785156 10.734375 -7.109375 C 10.492188 -7.429688 10.1875 -7.664062 9.8125 -7.8125 C 9.4375 -7.957031 8.953125 -8.03125 8.359375 -8.03125 L 6.3125 -8.03125 L 6.3125 0 Z M 9.78125 -11.046875 C 11.625 -11.046875 12.546875 -11.90625 12.546875 -13.625 C 12.546875 -15.375 11.625 -16.25 9.78125 -16.25 L 6.3125 -16.25 L 6.3125 -11.046875 Z M 9.78125 -11.046875 "/></g></g><g transform="translate(343.453686, 402.733301)"><g><path d="M 10.5 0.28125 C 8.738281 0.28125 7.179688 -0.078125 5.828125 -0.796875 C 4.484375 -1.523438 3.425781 -2.628906 2.65625 -4.109375 C 1.894531 -5.585938 1.515625 -7.429688 1.515625 -9.640625 C 1.515625 -11.847656 1.894531 -13.691406 2.65625 -15.171875 C 3.425781 -16.648438 4.484375 -17.75 5.828125 -18.46875 C 7.179688 -19.1875 8.738281 -19.546875 10.5 -19.546875 C 12.269531 -19.546875 13.828125 -19.1875 15.171875 -18.46875 C 16.515625 -17.757812 17.566406 -16.660156 18.328125 -15.171875 C 19.085938 -13.691406 19.46875 -11.847656 19.46875 -9.640625 C 19.46875 -7.429688 19.085938 -5.582031 18.328125 -4.09375 C 17.566406 -2.613281 16.515625 -1.515625 15.171875 -0.796875 C 13.828125 -0.078125 12.269531 0.28125 10.5 0.28125 Z M 10.5 -3.03125 C 12.132812 -3.03125 13.382812 -3.554688 14.25 -4.609375 C 15.113281 -5.660156 15.546875 -7.335938 15.546875 -9.640625 C 15.546875 -11.941406 15.113281 -13.617188 14.25 -14.671875 C 13.382812 -15.722656 12.132812 -16.25 10.5 -16.25 C 8.863281 -16.25 7.609375 -15.722656 6.734375 -14.671875 C 5.867188 -13.617188 5.4375 -11.941406 5.4375 -9.640625 C 5.4375 -7.335938 5.867188 -5.660156 6.734375 -4.609375 C 7.609375 -3.554688 8.863281 -3.03125 10.5 -3.03125 Z M 10.5 -3.03125 "/></g></g><g transform="translate(364.455149, 402.733301)"><g><path d="M 18.5 0 L 14.484375 0 L 13.03125 -4.4375 L 5.65625 -4.4375 L 4.203125 0 L 0.296875 0 L 6.953125 -19.28125 L 11.84375 -19.28125 Z M 9.15625 -15.25 L 6.6875 -7.640625 L 11.984375 -7.640625 L 9.5 -15.25 Z M 9.15625 -15.25 "/></g></g><g transform="translate(383.24177, 402.733301)"><g><path d="M 8.546875 0.28125 C 7.210938 0.28125 6.023438 0.113281 4.984375 -0.21875 C 3.941406 -0.550781 3.070312 -0.984375 2.375 -1.515625 C 1.675781 -2.054688 1.144531 -2.644531 0.78125 -3.28125 L 2.875 -5.84375 L 3.203125 -5.84375 C 3.785156 -4.976562 4.519531 -4.289062 5.40625 -3.78125 C 6.300781 -3.269531 7.347656 -3.015625 8.546875 -3.015625 C 9.566406 -3.015625 10.332031 -3.226562 10.84375 -3.65625 C 11.363281 -4.09375 11.625 -4.6875 11.625 -5.4375 C 11.625 -5.894531 11.539062 -6.273438 11.375 -6.578125 C 11.207031 -6.890625 10.929688 -7.15625 10.546875 -7.375 C 10.160156 -7.601562 9.640625 -7.796875 8.984375 -7.953125 L 6.5 -8.515625 C 4.769531 -8.910156 3.476562 -9.566406 2.625 -10.484375 C 1.78125 -11.398438 1.359375 -12.59375 1.359375 -14.0625 C 1.359375 -15.15625 1.628906 -16.113281 2.171875 -16.9375 C 2.722656 -17.769531 3.519531 -18.410156 4.5625 -18.859375 C 5.601562 -19.316406 6.847656 -19.546875 8.296875 -19.546875 C 9.773438 -19.546875 11.046875 -19.347656 12.109375 -18.953125 C 13.171875 -18.566406 14.066406 -17.972656 14.796875 -17.171875 L 12.90625 -14.578125 L 12.578125 -14.578125 C 12.035156 -15.148438 11.410156 -15.578125 10.703125 -15.859375 C 10.003906 -16.148438 9.203125 -16.296875 8.296875 -16.296875 C 7.242188 -16.296875 6.445312 -16.109375 5.90625 -15.734375 C 5.363281 -15.367188 5.09375 -14.863281 5.09375 -14.21875 C 5.09375 -13.601562 5.28125 -13.113281 5.65625 -12.75 C 6.039062 -12.394531 6.703125 -12.117188 7.640625 -11.921875 L 10.171875 -11.390625 C 12.046875 -10.992188 13.40625 -10.320312 14.25 -9.375 C 15.09375 -8.4375 15.515625 -7.207031 15.515625 -5.6875 C 15.515625 -4.476562 15.253906 -3.425781 14.734375 -2.53125 C 14.222656 -1.644531 13.441406 -0.953125 12.390625 -0.453125 C 11.347656 0.0351562 10.066406 0.28125 8.546875 0.28125 Z M 8.546875 0.28125 "/></g></g></g><g fill="#ffffff" fill-opacity="1"><g transform="translate(222.687451, 622.021936)"><g><path d="M 10.359375 -21.15625 C 13.796875 -21.15625 16.414062 -20.265625 18.21875 -18.484375 C 20.03125 -16.710938 20.9375 -14.078125 20.9375 -10.578125 C 20.9375 -7.085938 20.03125 -4.453125 18.21875 -2.671875 C 16.414062 -0.890625 13.796875 0 10.359375 0 L 2.75 0 L 2.75 -21.15625 Z M 10.109375 -3.515625 C 12.296875 -3.515625 13.925781 -4.070312 15 -5.1875 C 16.082031 -6.300781 16.625 -8.097656 16.625 -10.578125 C 16.625 -13.054688 16.082031 -14.851562 15 -15.96875 C 13.925781 -17.082031 12.296875 -17.640625 10.109375 -17.640625 L 6.9375 -17.640625 L 6.9375 -3.515625 Z M 10.109375 -3.515625 "/></g></g><g transform="translate(245.313209, 622.021936)"><g><path d="M 7.3125 0.296875 C 5.507812 0.296875 4.179688 -0.191406 3.328125 -1.171875 C 2.484375 -2.148438 2.0625 -3.554688 2.0625 -5.390625 L 2.0625 -15.96875 L 6.0625 -15.96875 L 6.0625 -5.890625 C 6.0625 -4.910156 6.269531 -4.195312 6.6875 -3.75 C 7.113281 -3.300781 7.765625 -3.078125 8.640625 -3.078125 C 9.753906 -3.078125 10.617188 -3.441406 11.234375 -4.171875 C 11.847656 -4.898438 12.15625 -6.046875 12.15625 -7.609375 L 12.15625 -15.96875 L 16.171875 -15.96875 L 16.171875 0 L 12.3125 0 L 12.3125 -2.34375 L 12.015625 -2.421875 C 11.503906 -1.503906 10.878906 -0.820312 10.140625 -0.375 C 9.398438 0.0703125 8.457031 0.296875 7.3125 0.296875 Z M 7.3125 0.296875 "/></g></g><g transform="translate(263.784398, 622.021936)"><g><path d="M 2.296875 6.46875 L 2.296875 -15.96875 L 6.3125 -15.96875 L 6.3125 -13.875 L 6.609375 -13.828125 C 7.085938 -14.628906 7.722656 -15.234375 8.515625 -15.640625 C 9.304688 -16.054688 10.226562 -16.265625 11.28125 -16.265625 C 12.570312 -16.265625 13.695312 -15.957031 14.65625 -15.34375 C 15.613281 -14.738281 16.359375 -13.816406 16.890625 -12.578125 C 17.429688 -11.335938 17.703125 -9.800781 17.703125 -7.96875 C 17.703125 -6.144531 17.414062 -4.613281 16.84375 -3.375 C 16.28125 -2.144531 15.5 -1.222656 14.5 -0.609375 C 13.5 -0.00390625 12.34375 0.296875 11.03125 0.296875 C 10.03125 0.296875 9.164062 0.132812 8.4375 -0.1875 C 7.71875 -0.519531 7.109375 -1.039062 6.609375 -1.75 L 6.3125 -1.6875 L 6.3125 6.46875 Z M 9.90625 -3.09375 C 11.101562 -3.09375 12.007812 -3.484375 12.625 -4.265625 C 13.25 -5.046875 13.5625 -6.28125 13.5625 -7.96875 C 13.5625 -9.65625 13.25 -10.890625 12.625 -11.671875 C 12.007812 -12.460938 11.101562 -12.859375 9.90625 -12.859375 C 8.789062 -12.859375 7.90625 -12.453125 7.25 -11.640625 C 6.59375 -10.835938 6.265625 -9.613281 6.265625 -7.96875 C 6.265625 -6.34375 6.59375 -5.125 7.25 -4.3125 C 7.90625 -3.5 8.789062 -3.09375 9.90625 -3.09375 Z M 9.90625 -3.09375 "/></g></g><g transform="translate(282.907, 622.021936)"><g><path d="M 6.625 0.296875 C 5.1875 0.296875 4.085938 -0.0859375 3.328125 -0.859375 C 2.578125 -1.640625 2.203125 -2.820312 2.203125 -4.40625 L 2.203125 -22.375 L 6.203125 -22.375 L 6.203125 -4.5625 C 6.203125 -3.582031 6.609375 -3.09375 7.421875 -3.09375 C 7.648438 -3.09375 7.894531 -3.132812 8.15625 -3.21875 L 8.359375 -3.15625 L 8.734375 -0.078125 C 8.503906 0.0351562 8.207031 0.125 7.84375 0.1875 C 7.476562 0.257812 7.070312 0.296875 6.625 0.296875 Z M 6.625 0.296875 "/></g></g><g transform="translate(292.08469, 622.021936)"><g><path d="M 4.296875 -17.875 C 3.578125 -17.875 2.988281 -18.09375 2.53125 -18.53125 C 2.082031 -18.96875 1.859375 -19.535156 1.859375 -20.234375 C 1.859375 -20.921875 2.082031 -21.484375 2.53125 -21.921875 C 2.988281 -22.359375 3.578125 -22.578125 4.296875 -22.578125 C 4.773438 -22.578125 5.203125 -22.472656 5.578125 -22.265625 C 5.960938 -22.066406 6.253906 -21.789062 6.453125 -21.4375 C 6.660156 -21.082031 6.765625 -20.679688 6.765625 -20.234375 C 6.765625 -19.773438 6.660156 -19.367188 6.453125 -19.015625 C 6.253906 -18.660156 5.960938 -18.378906 5.578125 -18.171875 C 5.203125 -17.972656 4.773438 -17.875 4.296875 -17.875 Z M 2.296875 0 L 2.296875 -15.96875 L 6.3125 -15.96875 L 6.3125 0 Z M 2.296875 0 "/></g></g><g transform="translate(300.683347, 622.021936)"><g><path d="M 9.3125 0.296875 C 7.757812 0.296875 6.390625 -0.0195312 5.203125 -0.65625 C 4.023438 -1.300781 3.101562 -2.242188 2.4375 -3.484375 C 1.769531 -4.734375 1.4375 -6.226562 1.4375 -7.96875 C 1.4375 -9.726562 1.769531 -11.226562 2.4375 -12.46875 C 3.101562 -13.71875 4.023438 -14.660156 5.203125 -15.296875 C 6.378906 -15.941406 7.722656 -16.265625 9.234375 -16.265625 C 12.597656 -16.265625 14.753906 -15.046875 15.703125 -12.609375 L 12.953125 -10.640625 L 12.65625 -10.640625 C 12.320312 -11.390625 11.890625 -11.945312 11.359375 -12.3125 C 10.835938 -12.675781 10.128906 -12.859375 9.234375 -12.859375 C 8.078125 -12.859375 7.175781 -12.457031 6.53125 -11.65625 C 5.882812 -10.863281 5.5625 -9.632812 5.5625 -7.96875 C 5.5625 -6.332031 5.890625 -5.109375 6.546875 -4.296875 C 7.203125 -3.492188 8.125 -3.09375 9.3125 -3.09375 C 10.175781 -3.09375 10.910156 -3.328125 11.515625 -3.796875 C 12.117188 -4.265625 12.550781 -4.9375 12.8125 -5.8125 L 13.109375 -5.84375 L 15.96875 -4.28125 C 15.5625 -2.925781 14.8125 -1.820312 13.71875 -0.96875 C 12.625 -0.125 11.15625 0.296875 9.3125 0.296875 Z M 9.3125 0.296875 "/></g></g><g transform="translate(317.142392, 622.021936)"><g><path d="M 6.21875 0.296875 C 5.195312 0.296875 4.3125 0.109375 3.5625 -0.265625 C 2.8125 -0.640625 2.234375 -1.191406 1.828125 -1.921875 C 1.421875 -2.648438 1.21875 -3.523438 1.21875 -4.546875 C 1.21875 -5.492188 1.421875 -6.285156 1.828125 -6.921875 C 2.234375 -7.566406 2.859375 -8.09375 3.703125 -8.5 C 4.554688 -8.914062 5.664062 -9.234375 7.03125 -9.453125 C 7.988281 -9.609375 8.710938 -9.773438 9.203125 -9.953125 C 9.703125 -10.140625 10.039062 -10.347656 10.21875 -10.578125 C 10.394531 -10.804688 10.484375 -11.101562 10.484375 -11.46875 C 10.484375 -11.976562 10.300781 -12.367188 9.9375 -12.640625 C 9.582031 -12.910156 8.988281 -13.046875 8.15625 -13.046875 C 7.269531 -13.046875 6.425781 -12.847656 5.625 -12.453125 C 4.820312 -12.054688 4.128906 -11.535156 3.546875 -10.890625 L 3.25 -10.890625 L 1.578125 -13.421875 C 2.390625 -14.316406 3.378906 -15.015625 4.546875 -15.515625 C 5.710938 -16.015625 6.984375 -16.265625 8.359375 -16.265625 C 10.472656 -16.265625 12.003906 -15.816406 12.953125 -14.921875 C 13.898438 -14.023438 14.375 -12.75 14.375 -11.09375 L 14.375 -4.171875 C 14.375 -3.453125 14.6875 -3.09375 15.3125 -3.09375 C 15.550781 -3.09375 15.785156 -3.140625 16.015625 -3.234375 L 16.21875 -3.171875 L 16.515625 -0.375 C 16.296875 -0.226562 15.988281 -0.109375 15.59375 -0.015625 C 15.195312 0.0664062 14.757812 0.109375 14.28125 0.109375 C 13.332031 0.109375 12.585938 -0.0703125 12.046875 -0.4375 C 11.515625 -0.800781 11.128906 -1.375 10.890625 -2.15625 L 10.59375 -2.1875 C 9.8125 -0.53125 8.351562 0.296875 6.21875 0.296875 Z M 7.5 -2.6875 C 8.425781 -2.6875 9.164062 -3 9.71875 -3.625 C 10.269531 -4.25 10.546875 -5.113281 10.546875 -6.21875 L 10.546875 -7.84375 L 10.28125 -7.90625 C 10.03125 -7.707031 9.707031 -7.539062 9.3125 -7.40625 C 8.925781 -7.28125 8.367188 -7.15625 7.640625 -7.03125 C 6.773438 -6.882812 6.148438 -6.632812 5.765625 -6.28125 C 5.390625 -5.9375 5.203125 -5.441406 5.203125 -4.796875 C 5.203125 -4.109375 5.398438 -3.582031 5.796875 -3.21875 C 6.203125 -2.863281 6.769531 -2.6875 7.5 -2.6875 Z M 7.5 -2.6875 "/></g></g><g transform="translate(333.977809, 622.021936)"><g><path d="M 11.015625 -3.8125 L 12.0625 -0.84375 C 11.625 -0.476562 11.078125 -0.195312 10.421875 0 C 9.765625 0.195312 9.019531 0.296875 8.1875 0.296875 C 6.457031 0.296875 5.144531 -0.171875 4.25 -1.109375 C 3.351562 -2.046875 2.90625 -3.410156 2.90625 -5.203125 L 2.90625 -12.796875 L 0.484375 -12.796875 L 0.484375 -15.984375 L 2.90625 -15.984375 L 2.90625 -19.09375 L 6.921875 -19.734375 L 6.921875 -15.984375 L 11.453125 -15.984375 L 11.453125 -12.796875 L 6.921875 -12.796875 L 6.921875 -5.5 C 6.921875 -4.707031 7.082031 -4.128906 7.40625 -3.765625 C 7.738281 -3.410156 8.21875 -3.234375 8.84375 -3.234375 C 9.550781 -3.234375 10.171875 -3.425781 10.703125 -3.8125 Z M 11.015625 -3.8125 "/></g></g><g transform="translate(346.383615, 622.021936)"><g><path d="M 15.78125 -7.078125 L 5.515625 -7.078125 C 5.628906 -5.691406 6.023438 -4.679688 6.703125 -4.046875 C 7.378906 -3.410156 8.300781 -3.09375 9.46875 -3.09375 C 10.382812 -3.09375 11.125 -3.265625 11.6875 -3.609375 C 12.257812 -3.953125 12.71875 -4.472656 13.0625 -5.171875 L 13.375 -5.171875 L 16.03125 -3.453125 C 15.507812 -2.335938 14.722656 -1.429688 13.671875 -0.734375 C 12.617188 -0.046875 11.21875 0.296875 9.46875 0.296875 C 7.8125 0.296875 6.382812 -0.015625 5.1875 -0.640625 C 3.988281 -1.265625 3.0625 -2.195312 2.40625 -3.4375 C 1.757812 -4.675781 1.4375 -6.1875 1.4375 -7.96875 C 1.4375 -9.789062 1.773438 -11.320312 2.453125 -12.5625 C 3.140625 -13.800781 4.066406 -14.726562 5.234375 -15.34375 C 6.398438 -15.957031 7.710938 -16.265625 9.171875 -16.265625 C 11.429688 -16.265625 13.160156 -15.664062 14.359375 -14.46875 C 15.566406 -13.269531 16.171875 -11.515625 16.171875 -9.203125 C 16.171875 -8.367188 16.140625 -7.71875 16.078125 -7.25 Z M 12.328125 -9.671875 C 12.285156 -10.878906 12.003906 -11.757812 11.484375 -12.3125 C 10.960938 -12.875 10.191406 -13.15625 9.171875 -13.15625 C 7.148438 -13.15625 5.957031 -11.992188 5.59375 -9.671875 Z M 12.328125 -9.671875 "/></g></g></g><g fill="#ffffff" fill-opacity="1"><g transform="translate(224.450292, 663.197696)"><g><path d="M 20.3125 0 L 15.90625 0 L 14.3125 -4.875 L 6.203125 -4.875 L 4.609375 0 L 0.3125 0 L 7.625 -21.15625 L 13 -21.15625 Z M 10.0625 -16.75 L 7.34375 -8.390625 L 13.15625 -8.390625 L 10.421875 -16.75 Z M 10.0625 -16.75 "/></g></g><g transform="translate(245.078383, 663.197696)"><g><path d="M 7.890625 0.296875 C 6.617188 0.296875 5.5 -0.00390625 4.53125 -0.609375 C 3.5625 -1.222656 2.800781 -2.148438 2.25 -3.390625 C 1.707031 -4.628906 1.4375 -6.15625 1.4375 -7.96875 C 1.4375 -9.789062 1.71875 -11.320312 2.28125 -12.5625 C 2.84375 -13.800781 3.625 -14.726562 4.625 -15.34375 C 5.625 -15.957031 6.78125 -16.265625 8.09375 -16.265625 C 9.082031 -16.265625 9.941406 -16.09375 10.671875 -15.75 C 11.398438 -15.40625 12.015625 -14.875 12.515625 -14.15625 L 12.828125 -14.234375 L 12.828125 -22.375 L 16.828125 -22.375 L 16.828125 0 L 12.828125 0 L 12.828125 -2.0625 L 12.515625 -2.125 C 12.078125 -1.375 11.46875 -0.78125 10.6875 -0.34375 C 9.914062 0.0820312 8.984375 0.296875 7.890625 0.296875 Z M 9.1875 -3.09375 C 10.320312 -3.09375 11.21875 -3.492188 11.875 -4.296875 C 12.53125 -5.109375 12.859375 -6.332031 12.859375 -7.96875 C 12.859375 -9.613281 12.53125 -10.835938 11.875 -11.640625 C 11.21875 -12.453125 10.320312 -12.859375 9.1875 -12.859375 C 8.007812 -12.859375 7.109375 -12.460938 6.484375 -11.671875 C 5.867188 -10.890625 5.5625 -9.65625 5.5625 -7.96875 C 5.5625 -6.289062 5.867188 -5.054688 6.484375 -4.265625 C 7.109375 -3.484375 8.007812 -3.09375 9.1875 -3.09375 Z M 9.1875 -3.09375 "/></g></g><g transform="translate(264.21546, 663.197696)"><g/></g><g transform="translate(271.207297, 663.197696)"><g><path d="M 10.28125 0.296875 C 8.507812 0.296875 6.976562 -0.101562 5.6875 -0.90625 C 4.40625 -1.707031 3.414062 -2.921875 2.71875 -4.546875 C 2.019531 -6.171875 1.671875 -8.179688 1.671875 -10.578125 C 1.671875 -12.992188 2.085938 -15.015625 2.921875 -16.640625 C 3.765625 -18.265625 4.929688 -19.472656 6.421875 -20.265625 C 7.910156 -21.066406 9.640625 -21.46875 11.609375 -21.46875 C 13.628906 -21.46875 15.351562 -21.085938 16.78125 -20.328125 C 18.21875 -19.578125 19.222656 -18.460938 19.796875 -16.984375 L 16.75 -15.125 L 16.390625 -15.140625 C 15.953125 -16.085938 15.335938 -16.773438 14.546875 -17.203125 C 13.765625 -17.640625 12.785156 -17.859375 11.609375 -17.859375 C 9.785156 -17.859375 8.390625 -17.28125 7.421875 -16.125 C 6.460938 -14.976562 5.984375 -13.128906 5.984375 -10.578125 C 5.984375 -8.023438 6.429688 -6.164062 7.328125 -5 C 8.234375 -3.84375 9.566406 -3.265625 11.328125 -3.265625 C 12.859375 -3.265625 13.984375 -3.609375 14.703125 -4.296875 C 15.429688 -4.984375 15.796875 -6.003906 15.796875 -7.359375 L 15.796875 -8.28125 L 10.78125 -8.28125 L 10.78125 -11.671875 L 19.9375 -11.671875 L 19.9375 0 L 15.953125 0 L 15.953125 -2.84375 L 15.640625 -2.875 C 15.210938 -1.863281 14.554688 -1.082031 13.671875 -0.53125 C 12.785156 0.0195312 11.65625 0.296875 10.28125 0.296875 Z M 10.28125 0.296875 "/></g></g><g transform="translate(293.282973, 663.197696)"><g><path d="M 2.296875 0 L 2.296875 -15.96875 L 6.1875 -15.96875 L 6.1875 -13.59375 L 6.5 -13.53125 C 6.882812 -14.414062 7.390625 -15.066406 8.015625 -15.484375 C 8.640625 -15.898438 9.40625 -16.109375 10.3125 -16.109375 C 11.21875 -16.109375 11.90625 -15.953125 12.375 -15.640625 L 11.6875 -12.1875 L 11.390625 -12.125 C 11.128906 -12.226562 10.878906 -12.304688 10.640625 -12.359375 C 10.398438 -12.410156 10.101562 -12.4375 9.75 -12.4375 C 8.632812 -12.4375 7.78125 -12.039062 7.1875 -11.25 C 6.601562 -10.46875 6.3125 -9.207031 6.3125 -7.46875 L 6.3125 0 Z M 2.296875 0 "/></g></g><g transform="translate(305.804586, 663.197696)"><g><path d="M 9.28125 0.296875 C 7.71875 0.296875 6.34375 -0.0195312 5.15625 -0.65625 C 3.976562 -1.300781 3.0625 -2.242188 2.40625 -3.484375 C 1.757812 -4.722656 1.4375 -6.21875 1.4375 -7.96875 C 1.4375 -9.726562 1.757812 -11.226562 2.40625 -12.46875 C 3.0625 -13.71875 3.976562 -14.660156 5.15625 -15.296875 C 6.34375 -15.941406 7.71875 -16.265625 9.28125 -16.265625 C 10.84375 -16.265625 12.210938 -15.941406 13.390625 -15.296875 C 14.578125 -14.660156 15.5 -13.71875 16.15625 -12.46875 C 16.8125 -11.226562 17.140625 -9.726562 17.140625 -7.96875 C 17.140625 -6.21875 16.8125 -4.722656 16.15625 -3.484375 C 15.5 -2.242188 14.578125 -1.300781 13.390625 -0.65625 C 12.210938 -0.0195312 10.84375 0.296875 9.28125 0.296875 Z M 9.28125 -3.09375 C 11.757812 -3.09375 13 -4.71875 13 -7.96875 C 13 -9.65625 12.679688 -10.890625 12.046875 -11.671875 C 11.410156 -12.460938 10.488281 -12.859375 9.28125 -12.859375 C 6.800781 -12.859375 5.5625 -11.226562 5.5625 -7.96875 C 5.5625 -4.71875 6.800781 -3.09375 9.28125 -3.09375 Z M 9.28125 -3.09375 "/></g></g><g transform="translate(324.36263, 663.197696)"><g><path d="M 7.3125 0.296875 C 5.507812 0.296875 4.179688 -0.191406 3.328125 -1.171875 C 2.484375 -2.148438 2.0625 -3.554688 2.0625 -5.390625 L 2.0625 -15.96875 L 6.0625 -15.96875 L 6.0625 -5.890625 C 6.0625 -4.910156 6.269531 -4.195312 6.6875 -3.75 C 7.113281 -3.300781 7.765625 -3.078125 8.640625 -3.078125 C 9.753906 -3.078125 10.617188 -3.441406 11.234375 -4.171875 C 11.847656 -4.898438 12.15625 -6.046875 12.15625 -7.609375 L 12.15625 -15.96875 L 16.171875 -15.96875 L 16.171875 0 L 12.3125 0 L 12.3125 -2.34375 L 12.015625 -2.421875 C 11.503906 -1.503906 10.878906 -0.820312 10.140625 -0.375 C 9.398438 0.0703125 8.457031 0.296875 7.3125 0.296875 Z M 7.3125 0.296875 "/></g></g><g transform="translate(342.833819, 663.197696)"><g><path d="M 2.296875 6.46875 L 2.296875 -15.96875 L 6.3125 -15.96875 L 6.3125 -13.875 L 6.609375 -13.828125 C 7.085938 -14.628906 7.722656 -15.234375 8.515625 -15.640625 C 9.304688 -16.054688 10.226562 -16.265625 11.28125 -16.265625 C 12.570312 -16.265625 13.695312 -15.957031 14.65625 -15.34375 C 15.613281 -14.738281 16.359375 -13.816406 16.890625 -12.578125 C 17.429688 -11.335938 17.703125 -9.800781 17.703125 -7.96875 C 17.703125 -6.144531 17.414062 -4.613281 16.84375 -3.375 C 16.28125 -2.144531 15.5 -1.222656 14.5 -0.609375 C 13.5 -0.00390625 12.34375 0.296875 11.03125 0.296875 C 10.03125 0.296875 9.164062 0.132812 8.4375 -0.1875 C 7.71875 -0.519531 7.109375 -1.039062 6.609375 -1.75 L 6.3125 -1.6875 L 6.3125 6.46875 Z M 9.90625 -3.09375 C 11.101562 -3.09375 12.007812 -3.484375 12.625 -4.265625 C 13.25 -5.046875 13.5625 -6.28125 13.5625 -7.96875 C 13.5625 -9.65625 13.25 -10.890625 12.625 -11.671875 C 12.007812 -12.460938 11.101562 -12.859375 9.90625 -12.859375 C 8.789062 -12.859375 7.90625 -12.453125 7.25 -11.640625 C 6.59375 -10.835938 6.265625 -9.613281 6.265625 -7.96875 C 6.265625 -6.34375 6.59375 -5.125 7.25 -4.3125 C 7.90625 -3.5 8.789062 -3.09375 9.90625 -3.09375 Z M 9.90625 -3.09375 "/></g></g></g><g fill="#000000" fill-opacity="1"><g transform="translate(564.857498, 554.571799)"><g><path d="M 2.375 -3.875 C 2.375 -6.570312 2.664062 -8.84375 3.25 -10.6875 C 3.84375 -12.539062 4.804688 -14.234375 6.140625 -15.765625 C 7.484375 -17.296875 9.382812 -18.941406 11.84375 -20.703125 L 18.359375 -25.421875 C 20.140625 -26.679688 21.523438 -27.78125 22.515625 -28.71875 C 23.515625 -29.65625 24.265625 -30.632812 24.765625 -31.65625 C 25.265625 -32.6875 25.515625 -33.859375 25.515625 -35.171875 C 25.515625 -37.160156 24.910156 -38.691406 23.703125 -39.765625 C 22.503906 -40.847656 20.703125 -41.390625 18.296875 -41.390625 C 15.972656 -41.390625 13.90625 -40.835938 12.09375 -39.734375 C 10.289062 -38.640625 8.800781 -37.132812 7.625 -35.21875 L 6.984375 -35.046875 L 1.671875 -41 C 3.410156 -43.582031 5.675781 -45.660156 8.46875 -47.234375 C 11.269531 -48.804688 14.664062 -49.59375 18.65625 -49.59375 C 22.3125 -49.59375 25.367188 -48.988281 27.828125 -47.78125 C 30.296875 -46.582031 32.125 -44.9375 33.3125 -42.84375 C 34.507812 -40.757812 35.109375 -38.375 35.109375 -35.6875 C 35.109375 -33.363281 34.625 -31.242188 33.65625 -29.328125 C 32.6875 -27.410156 31.34375 -25.632812 29.625 -24 C 27.90625 -22.375 25.710938 -20.628906 23.046875 -18.765625 L 17.25 -14.71875 C 15.507812 -13.46875 14.296875 -12.359375 13.609375 -11.390625 C 12.921875 -10.421875 12.578125 -9.320312 12.578125 -8.09375 L 34.640625 -8.09375 L 34.640625 0 L 2.375 0 Z M 2.375 -3.875 "/></g></g><g transform="translate(603.008456, 554.571799)"><g><path d="M 10.734375 0 L 0.84375 0 L 15.3125 -25.140625 L 1.53125 -48.890625 L 11.796875 -48.890625 L 21.9375 -31.359375 L 22.765625 -31.359375 L 33.078125 -48.890625 L 42.84375 -48.890625 L 29.0625 -25.140625 L 43.53125 0 L 33.3125 0 L 22.4375 -18.859375 L 21.609375 -18.859375 Z M 10.734375 0 "/></g></g></g><path stroke-linecap="butt" transform="matrix(0.00922885, 0.749943, -0.749943, 0.00922885, 295.089337, 448.056237)" fill="none" stroke-linejoin="miter" d="M -0.00157333 2.499494 L 148.785703 2.502216 " stroke="#000000" stroke-width="5" stroke-opacity="1" stroke-miterlimit="4"/><path stroke-linecap="round" transform="matrix(0.00922885, 0.749943, -0.749943, 0.00922885, 295.089337, 448.056237)" fill-opacity="1" fill="#000000" fill-rule="nonzero" stroke-linejoin="round" d="M 150.034346 -4.998612 L 160.031373 2.499971 L 150.032047 10.002496 Z M 150.034346 -4.998612 " stroke="#000000" stroke-width="5" stroke-opacity="1" stroke-miterlimit="4"/><path stroke-linecap="butt" transform="matrix(0, 0.75, -0.75, 0, 295.086642, 221.482142)" fill="none" stroke-linejoin="miter" d="M -0.00223054 2.500939 L 141.461318 2.500939 " stroke="#000000" stroke-width="5" stroke-opacity="1" stroke-miterlimit="4"/><path stroke-linecap="round" transform="matrix(0, 0.75, -0.75, 0, 295.086642, 221.482142)" fill-opacity="1" fill="#000000" fill-rule="nonzero" stroke-linejoin="round" d="M 142.711318 -4.999061 L 152.711319 2.500939 L 142.711318 10.00094 Z M 142.711318 -4.999061 " stroke="#000000" stroke-width="5" stroke-opacity="1" stroke-miterlimit="4"/><g clip-path="url(#dbf8846454)"><path fill="#000000" d="M 294.714844 253.992188 L 406.992188 253.992188 L 406.992188 305.375 L 294.714844 305.375 Z M 294.714844 253.992188 " fill-opacity="1" fill-rule="nonzero"/></g><g fill="#ffffff" fill-opacity="1"><g transform="translate(324.805595, 287.55938)"><g><path d="M 15.921875 0 L 12.46875 0 L 11.21875 -3.828125 L 4.859375 -3.828125 L 3.625 0 L 0.25 0 L 5.984375 -16.59375 L 10.1875 -16.59375 Z M 7.890625 -13.125 L 5.75 -6.578125 L 10.3125 -6.578125 L 8.171875 -13.125 Z M 7.890625 -13.125 "/></g></g></g><g fill="#ffffff" fill-opacity="1"><g transform="translate(340.966655, 287.55938)"><g><path d="M 5.328125 0 L 2.15625 0 L 2.15625 -16.59375 L 5.90625 -16.59375 L 12.5625 -5.90625 L 12.859375 -5.9375 L 12.859375 -16.59375 L 16.015625 -16.59375 L 16.015625 0 L 12.65625 0 L 5.609375 -11.40625 L 5.328125 -11.375 Z M 5.328125 0 "/></g></g></g><g fill="#ffffff" fill-opacity="1"><g transform="translate(359.146429, 287.55938)"><g><path d="M 8.125 -16.59375 C 10.8125 -16.59375 12.863281 -15.894531 14.28125 -14.5 C 15.707031 -13.101562 16.421875 -11.035156 16.421875 -8.296875 C 16.421875 -5.554688 15.707031 -3.488281 14.28125 -2.09375 C 12.863281 -0.695312 10.8125 0 8.125 0 L 2.15625 0 L 2.15625 -16.59375 Z M 7.9375 -2.75 C 9.644531 -2.75 10.921875 -3.1875 11.765625 -4.0625 C 12.609375 -4.9375 13.03125 -6.347656 13.03125 -8.296875 C 13.03125 -10.234375 12.609375 -11.640625 11.765625 -12.515625 C 10.921875 -13.390625 9.644531 -13.828125 7.9375 -13.828125 L 5.4375 -13.828125 L 5.4375 -2.75 Z M 7.9375 -2.75 "/></g></g></g></svg>